<?xml version="1.0" encoding="UTF-8" standalone="no"?>
<!DOCTYPE svg PUBLIC "-//W3C//DTD SVG 1.1//EN"
 "http://www.w3.org/Graphics/SVG/1.1/DTD/svg11.dtd">
<!-- Generated by graphviz version 2.38.0 (20140413.2041)
 -->
<!-- Title: models_diagram Pages: 1 -->
<svg width="988pt" height="393pt"
 viewBox="0.00 0.00 988.34 393.00" xmlns="http://www.w3.org/2000/svg" xmlns:xlink="http://www.w3.org/1999/xlink">
<g id="graph0" class="graph" transform="scale(1 1) rotate(0) translate(4 389)">
<title>models_diagram</title>
<polygon fill="none" stroke="none" points="-4,4 -4,-389 984.343,-389 984.343,4 -4,4"/>
<!-- _diagram_info -->
<g id="node1" class="node"><title>_diagram_info</title>
<text text-anchor="start" x="8" y="-288.6" font-family="Times,serif" font-size="13.00">Models diagram</text>
<text text-anchor="start" x="8" y="-274.6" font-family="Times,serif" font-size="13.00">Date: Feb 27 2017 &#45; 17:25</text>
<text text-anchor="start" x="8" y="-260.6" font-family="Times,serif" font-size="13.00">Migration version: 20170227200322</text>
<text text-anchor="start" x="8" y="-246.6" font-family="Times,serif" font-size="13.00">Generated by RailRoady 1.5.2</text>
<text text-anchor="start" x="8" y="-232.6" font-family="Times,serif" font-size="13.00">http://railroady.prestonlee.com</text>
</g>
<!-- Pokemon -->
<g id="node2" class="node"><title>Pokemon</title>
<path fill="none" stroke="black" d="M244,-211C244,-211 464,-211 464,-211 470,-211 476,-217 476,-223 476,-223 476,-305 476,-305 476,-311 470,-317 464,-317 464,-317 244,-317 244,-317 238,-317 232,-311 232,-305 232,-305 232,-223 232,-223 232,-217 238,-211 244,-211"/>
<text text-anchor="middle" x="354" y="-301.8" font-family="Times,serif" font-size="14.00">Pokemon</text>
<polyline fill="none" stroke="black" points="232,-294 476,-294 "/>
<text text-anchor="start" x="240" y="-278.8" font-family="Times,serif" font-size="14.00">id :integer</text>
<text text-anchor="start" x="240" y="-263.8" font-family="Times,serif" font-size="14.00">name :character varying</text>
<text text-anchor="start" x="240" y="-248.8" font-family="Times,serif" font-size="14.00">description :text</text>
<text text-anchor="start" x="240" y="-233.8" font-family="Times,serif" font-size="14.00">created_at :timestamp without time zone</text>
<text text-anchor="start" x="240" y="-218.8" font-family="Times,serif" font-size="14.00">updated_at :timestamp without time zone</text>
</g>
<!-- Catched -->
<g id="node5" class="node"><title>Catched</title>
<path fill="none" stroke="black" d="M392,-0.5C392,-0.5 612,-0.5 612,-0.5 618,-0.5 624,-6.5 624,-12.5 624,-12.5 624,-94.5 624,-94.5 624,-100.5 618,-106.5 612,-106.5 612,-106.5 392,-106.5 392,-106.5 386,-106.5 380,-100.5 380,-94.5 380,-94.5 380,-12.5 380,-12.5 380,-6.5 386,-0.5 392,-0.5"/>
<text text-anchor="middle" x="502" y="-91.3" font-family="Times,serif" font-size="14.00">Catched</text>
<polyline fill="none" stroke="black" points="380,-83.5 624,-83.5 "/>
<text text-anchor="start" x="388" y="-68.3" font-family="Times,serif" font-size="14.00">id :integer</text>
<text text-anchor="start" x="388" y="-53.3" font-family="Times,serif" font-size="14.00">level :integer</text>
<text text-anchor="start" x="388" y="-38.3" font-family="Times,serif" font-size="14.00">user_id :integer</text>
<text text-anchor="start" x="388" y="-23.3" font-family="Times,serif" font-size="14.00">created_at :timestamp without time zone</text>
<text text-anchor="start" x="388" y="-8.3" font-family="Times,serif" font-size="14.00">updated_at :timestamp without time zone</text>
</g>
<!-- Pokemon&#45;&gt;Catched -->
<g id="edge1" class="edge"><title>Pokemon&#45;&gt;Catched</title>
<path fill="none" stroke="#6c6014" d="M395.821,-204.084C415.634,-176.171 439.269,-142.874 459.205,-114.789"/>
<ellipse fill="none" stroke="#6c6014" cx="393.28" cy="-207.663" rx="4.00002" ry="4.00002"/>
<polygon fill="#6c6014" stroke="#6c6014" points="459.205,-114.789 468.663,-109.239 462.099,-110.712 464.993,-106.634 464.993,-106.634 464.993,-106.634 462.099,-110.712 461.324,-104.03 459.205,-114.789 459.205,-114.789"/>
</g>
<!-- ApplicationRecord -->
<g id="node3" class="node"><title>ApplicationRecord</title>
<ellipse fill="none" stroke="black" cx="903" cy="-264" rx="77.1866" ry="18"/>
<text text-anchor="middle" x="903" y="-260.3" font-family="Times,serif" font-size="14.00">ApplicationRecord</text>
</g>
<!-- User -->
<g id="node4" class="node"><title>User</title>
<path fill="none" stroke="black" d="M506.5,-143.5C506.5,-143.5 795.5,-143.5 795.5,-143.5 801.5,-143.5 807.5,-149.5 807.5,-155.5 807.5,-155.5 807.5,-372.5 807.5,-372.5 807.5,-378.5 801.5,-384.5 795.5,-384.5 795.5,-384.5 506.5,-384.5 506.5,-384.5 500.5,-384.5 494.5,-378.5 494.5,-372.5 494.5,-372.5 494.5,-155.5 494.5,-155.5 494.5,-149.5 500.5,-143.5 506.5,-143.5"/>
<text text-anchor="middle" x="651" y="-369.3" font-family="Times,serif" font-size="14.00">User</text>
<polyline fill="none" stroke="black" points="494.5,-361.5 807.5,-361.5 "/>
<text text-anchor="start" x="502.5" y="-346.3" font-family="Times,serif" font-size="14.00">id :integer</text>
<text text-anchor="start" x="502.5" y="-331.3" font-family="Times,serif" font-size="14.00">email :character varying</text>
<text text-anchor="start" x="502.5" y="-316.3" font-family="Times,serif" font-size="14.00">encrypted_password :character varying</text>
<text text-anchor="start" x="502.5" y="-301.3" font-family="Times,serif" font-size="14.00">reset_password_token :character varying</text>
<text text-anchor="start" x="502.5" y="-286.3" font-family="Times,serif" font-size="14.00">reset_password_sent_at :timestamp without time zone</text>
<text text-anchor="start" x="502.5" y="-271.3" font-family="Times,serif" font-size="14.00">remember_created_at :timestamp without time zone</text>
<text text-anchor="start" x="502.5" y="-256.3" font-family="Times,serif" font-size="14.00">sign_in_count :integer</text>
<text text-anchor="start" x="502.5" y="-241.3" font-family="Times,serif" font-size="14.00">current_sign_in_at :timestamp without time zone</text>
<text text-anchor="start" x="502.5" y="-226.3" font-family="Times,serif" font-size="14.00">last_sign_in_at :timestamp without time zone</text>
<text text-anchor="start" x="502.5" y="-211.3" font-family="Times,serif" font-size="14.00">current_sign_in_ip :inet</text>
<text text-anchor="start" x="502.5" y="-196.3" font-family="Times,serif" font-size="14.00">last_sign_in_ip :inet</text>
<text text-anchor="start" x="502.5" y="-181.3" font-family="Times,serif" font-size="14.00">created_at :timestamp without time zone</text>
<text text-anchor="start" x="502.5" y="-166.3" font-family="Times,serif" font-size="14.00">updated_at :timestamp without time zone</text>
<text text-anchor="start" x="502.5" y="-151.3" font-family="Times,serif" font-size="14.00">role :character varying</text>
</g>
<!-- User&#45;&gt;Catched -->
<g id="edge2" class="edge"><title>User&#45;&gt;Catched</title>
<path fill="none" stroke="#273694" d="M560.746,-136.705C555.514,-129.384 550.39,-122.214 545.485,-115.349"/>
<ellipse fill="none" stroke="#273694" cx="563.08" cy="-139.971" rx="4.00002" ry="4.00002"/>
<polygon fill="#273694" stroke="#273694" points="545.21,-114.966 543.057,-104.213 542.303,-110.898 539.396,-106.83 539.396,-106.83 539.396,-106.83 542.303,-110.898 535.735,-109.446 545.21,-114.966 545.21,-114.966"/>
</g>
</g>
</svg>
