<?xml version="1.0" encoding="UTF-8" standalone="no"?>
<!DOCTYPE svg PUBLIC "-//W3C//DTD SVG 1.1//EN"
 "http://www.w3.org/Graphics/SVG/1.1/DTD/svg11.dtd">
<!-- Generated by graphviz version 2.38.0 (20140413.2041)
 -->
<!-- Title: models_diagram Pages: 1 -->
<svg width="573pt" height="158pt"
 viewBox="0.00 0.00 573.34 158.00" xmlns="http://www.w3.org/2000/svg" xmlns:xlink="http://www.w3.org/1999/xlink">
<g id="graph0" class="graph" transform="scale(1 1) rotate(0) translate(4 154)">
<title>models_diagram</title>
<polygon fill="none" stroke="none" points="-4,4 -4,-154 569.343,-154 569.343,4 -4,4"/>
<!-- _diagram_info -->
<g id="node1" class="node"><title>_diagram_info</title>
<text text-anchor="start" x="8" y="-135.6" font-family="Times,serif" font-size="13.00">Models diagram</text>
<text text-anchor="start" x="8" y="-121.6" font-family="Times,serif" font-size="13.00">Date: Feb 27 2017 &#45; 17:25</text>
<text text-anchor="start" x="8" y="-107.6" font-family="Times,serif" font-size="13.00">Migration version: 20170227200322</text>
<text text-anchor="start" x="8" y="-93.6" font-family="Times,serif" font-size="13.00">Generated by RailRoady 1.5.2</text>
<text text-anchor="start" x="8" y="-79.6" font-family="Times,serif" font-size="13.00">http://railroady.prestonlee.com</text>
</g>
<!-- Pokemon -->
<g id="node2" class="node"><title>Pokemon</title>
<ellipse fill="none" stroke="black" cx="276" cy="-111" rx="44.393" ry="18"/>
<text text-anchor="middle" x="276" y="-107.3" font-family="Times,serif" font-size="14.00">Pokemon</text>
</g>
<!-- Catched -->
<g id="node5" class="node"><title>Catched</title>
<ellipse fill="none" stroke="black" cx="320" cy="-18" rx="39.7935" ry="18"/>
<text text-anchor="middle" x="320" y="-14.3" font-family="Times,serif" font-size="14.00">Catched</text>
</g>
<!-- Pokemon&#45;&gt;Catched -->
<g id="edge1" class="edge"><title>Pokemon&#45;&gt;Catched</title>
<path fill="none" stroke="#f32ea6" d="M287.828,-85.538C293.901,-72.9765 301.302,-57.6718 307.473,-44.909"/>
<ellipse fill="none" stroke="#f32ea6" cx="286.017" cy="-89.2825" rx="4.00002" ry="4.00002"/>
<polygon fill="#f32ea6" stroke="#f32ea6" points="307.557,-44.7351 315.961,-37.6911 309.733,-40.2336 311.91,-35.7322 311.91,-35.7322 311.91,-35.7322 309.733,-40.2336 307.858,-33.7733 307.557,-44.7351 307.557,-44.7351"/>
</g>
<!-- ApplicationRecord -->
<g id="node3" class="node"><title>ApplicationRecord</title>
<ellipse fill="none" stroke="black" cx="488" cy="-111" rx="77.1866" ry="18"/>
<text text-anchor="middle" x="488" y="-107.3" font-family="Times,serif" font-size="14.00">ApplicationRecord</text>
</g>
<!-- User -->
<g id="node4" class="node"><title>User</title>
<ellipse fill="none" stroke="black" cx="365" cy="-111" rx="27.0966" ry="18"/>
<text text-anchor="middle" x="365" y="-107.3" font-family="Times,serif" font-size="14.00">User</text>
</g>
<!-- User&#45;&gt;Catched -->
<g id="edge2" class="edge"><title>User&#45;&gt;Catched</title>
<path fill="none" stroke="#792b48" d="M353.309,-86.3589C346.991,-73.5825 339.182,-57.7898 332.713,-44.7082"/>
<ellipse fill="none" stroke="#792b48" cx="355.182" cy="-90.1455" rx="4.00002" ry="4.00002"/>
<polygon fill="#792b48" stroke="#792b48" points="332.713,-44.7077 332.314,-33.7491 330.496,-40.2257 328.28,-35.7438 328.28,-35.7438 328.28,-35.7438 330.496,-40.2257 324.246,-37.7385 332.713,-44.7077 332.713,-44.7077"/>
</g>
</g>
</svg>
